<svg width="192" height="192" viewBox="0 0 192 192" fill="none" xmlns="http://www.w3.org/2000/svg">
  <rect width="192" height="192" rx="28" fill="#000c1a"/>

  <!-- I piece (cyan) — row2, cols 0-3 -->
  <rect x="15" y="71" width="26" height="26" rx="4" fill="#00e8e8" stroke="#80ffff" stroke-width="1.2"/>
  <rect x="16" y="72" width="12" height="5" rx="2" fill="rgba(255,255,255,0.3)"/>
  <rect x="43" y="71" width="26" height="26" rx="4" fill="#00e8e8" stroke="#80ffff" stroke-width="1.2"/>
  <rect x="44" y="72" width="12" height="5" rx="2" fill="rgba(255,255,255,0.3)"/>
  <rect x="71" y="71" width="26" height="26" rx="4" fill="#00e8e8" stroke="#80ffff" stroke-width="1.2"/>
  <rect x="72" y="72" width="12" height="5" rx="2" fill="rgba(255,255,255,0.3)"/>
  <rect x="99" y="71" width="26" height="26" rx="4" fill="#00e8e8" stroke="#80ffff" stroke-width="1.2"/>
  <rect x="100" y="72" width="12" height="5" rx="2" fill="rgba(255,255,255,0.3)"/>

  <!-- T piece (purple) — row3 cols1-3, row4 col2 -->
  <rect x="43" y="99" width="26" height="26" rx="4" fill="#c000f0" stroke="#e080ff" stroke-width="1.2"/>
  <rect x="44" y="100" width="12" height="5" rx="2" fill="rgba(255,255,255,0.3)"/>
  <rect x="71" y="99" width="26" height="26" rx="4" fill="#c000f0" stroke="#e080ff" stroke-width="1.2"/>
  <rect x="72" y="100" width="12" height="5" rx="2" fill="rgba(255,255,255,0.3)"/>
  <rect x="99" y="99" width="26" height="26" rx="4" fill="#c000f0" stroke="#e080ff" stroke-width="1.2"/>
  <rect x="100" y="100" width="12" height="5" rx="2" fill="rgba(255,255,255,0.3)"/>
  <rect x="71" y="127" width="26" height="26" rx="4" fill="#c000f0" stroke="#e080ff" stroke-width="1.2"/>
  <rect x="72" y="128" width="12" height="5" rx="2" fill="rgba(255,255,255,0.3)"/>

  <!-- S piece (green) — row3 cols4-5, row4 cols3-4 -->
  <rect x="127" y="99" width="26" height="26" rx="4" fill="#00f060" stroke="#80ffb0" stroke-width="1.2"/>
  <rect x="128" y="100" width="12" height="5" rx="2" fill="rgba(255,255,255,0.3)"/>
  <rect x="155" y="99" width="26" height="26" rx="4" fill="#00f060" stroke="#80ffb0" stroke-width="1.2"/>
  <rect x="156" y="100" width="12" height="5" rx="2" fill="rgba(255,255,255,0.3)"/>
  <rect x="99" y="127" width="26" height="26" rx="4" fill="#00f060" stroke="#80ffb0" stroke-width="1.2"/>
  <rect x="100" y="128" width="12" height="5" rx="2" fill="rgba(255,255,255,0.3)"/>
  <rect x="127" y="127" width="26" height="26" rx="4" fill="#00f060" stroke="#80ffb0" stroke-width="1.2"/>
  <rect x="128" y="128" width="12" height="5" rx="2" fill="rgba(255,255,255,0.3)"/>

  <!-- L piece (orange) — row4 col0, row5 cols0-2 -->
  <rect x="15" y="127" width="26" height="26" rx="4" fill="#f08000" stroke="#ffcc60" stroke-width="1.2"/>
  <rect x="16" y="128" width="12" height="5" rx="2" fill="rgba(255,255,255,0.3)"/>
  <rect x="15" y="155" width="26" height="26" rx="4" fill="#f08000" stroke="#ffcc60" stroke-width="1.2"/>
  <rect x="16" y="156" width="12" height="5" rx="2" fill="rgba(255,255,255,0.3)"/>
  <rect x="43" y="155" width="26" height="26" rx="4" fill="#f08000" stroke="#ffcc60" stroke-width="1.2"/>
  <rect x="44" y="156" width="12" height="5" rx="2" fill="rgba(255,255,255,0.3)"/>
  <rect x="71" y="155" width="26" height="26" rx="4" fill="#f08000" stroke="#ffcc60" stroke-width="1.2"/>
  <rect x="72" y="156" width="12" height="5" rx="2" fill="rgba(255,255,255,0.3)"/>

  <!-- J piece (blue) — row4 col5, row5 cols3-5 -->
  <rect x="155" y="127" width="26" height="26" rx="4" fill="#0080f0" stroke="#60c0ff" stroke-width="1.2"/>
  <rect x="156" y="128" width="12" height="5" rx="2" fill="rgba(255,255,255,0.3)"/>
  <rect x="99" y="155" width="26" height="26" rx="4" fill="#0080f0" stroke="#60c0ff" stroke-width="1.2"/>
  <rect x="100" y="156" width="12" height="5" rx="2" fill="rgba(255,255,255,0.3)"/>
  <rect x="127" y="155" width="26" height="26" rx="4" fill="#0080f0" stroke="#60c0ff" stroke-width="1.2"/>
  <rect x="128" y="156" width="12" height="5" rx="2" fill="rgba(255,255,255,0.3)"/>
  <rect x="155" y="155" width="26" height="26" rx="4" fill="#0080f0" stroke="#60c0ff" stroke-width="1.2"/>
  <rect x="156" y="156" width="12" height="5" rx="2" fill="rgba(255,255,255,0.3)"/>
</svg>
